<svg xmlns="http://www.w3.org/2000/svg" width="51" height="39" viewBox="0 0 51 39"><g><g><path fill="#fff" d="M44.763 39H6.236C2.796 39 0 36.19 0 32.733V6.267C0 2.809 2.796 0 6.236 0h38.537C48.213 0 51.01 2.82 51 6.277v26.456C51 36.19 48.203 39 44.763 39zm3.387-6.267V6.277c0-1.877-1.52-3.404-3.387-3.404H6.236C4.37 2.873 2.85 4.4 2.85 6.277v26.456c0 1.876 1.52 3.404 3.387 3.404h38.537c1.868 0 3.388-1.528 3.388-3.404zm-3.408.413a1.42 1.42 0 0 1-1.034.446c-.349 0-.707-.127-.982-.392L30.042 21.09l-3.556 3.202a1.42 1.42 0 0 1-1.9.01l-3.46-3.106L8.368 33.19a1.424 1.424 0 0 1-2.016-.074 1.442 1.442 0 0 1 .064-2.026l12.568-11.823L6.363 7.931a1.434 1.434 0 0 1-.116-2.025 1.418 1.418 0 0 1 2.015-.117l13.655 12.28c.085.063.158.126.232.2 0 .011.01.022.021.032l3.356 3.012L42.726 5.8a1.426 1.426 0 0 1 2.016.106 1.443 1.443 0 0 1-.106 2.025l-12.473 11.24L44.69 31.12c.57.54.59 1.453.053 2.025z"/></g></g></svg>