<svg xmlns="http://www.w3.org/2000/svg" width="49" height="49" viewBox="0 0 49 49"><g><g><path fill="#fff" d="M24.5 48.984C10.98 48.984.018 38.022.018 24.5.018 10.978 10.979.015 24.5.015c13.526 0 24.485 10.963 24.482 24.485 0 13.522-10.96 24.484-24.482 24.484zM44.61 20.878l-2.712.507a.103.103 0 0 1-.043.006.216.216 0 0 1-.208-.174.211.211 0 0 1 .168-.246l2.71-.508a19.992 19.992 0 0 0-1.372-4.35l-2.54 1.334a.21.21 0 0 1-.285-.09.21.21 0 0 1 .089-.287l2.546-1.339a20.71 20.71 0 0 0-2.2-3.602l-2.3 1.894a.205.205 0 0 1-.137.05.203.203 0 0 1-.163-.079.216.216 0 0 1 .029-.299l2.312-1.903a20.192 20.192 0 0 0-2.983-3.06l-1.89 2.417a.223.223 0 0 1-.169.083.25.25 0 0 1-.133-.044.21.21 0 0 1-.035-.297l1.886-2.413a20.15 20.15 0 0 0-3.357-2.158l-1.424 2.693a.209.209 0 0 1-.285.09.214.214 0 0 1-.089-.289l1.42-2.69a20.264 20.264 0 0 0-4.133-1.502l-.58 3.234a.215.215 0 0 1-.208.173c-.011 0-.024 0-.037-.003a.211.211 0 0 1-.171-.248l.577-3.235a20.418 20.418 0 0 0-3.357-.465c0 .017.006.03.006.044V7.93a1.038 1.038 0 1 1-2.078 0V4.12c0-.013.01-.025.01-.043-.847.043-1.675.154-2.492.295l.507 2.842a.212.212 0 0 1-.17.245c-.014.003-.027.003-.04.003-.1 0-.19-.072-.207-.175l-.507-2.836a20.346 20.346 0 0 0-4.124 1.265l1.337 2.53a.212.212 0 0 1-.087.288.207.207 0 0 1-.29-.088L16.046 5.88a20.042 20.042 0 0 0-3.444 2.008l1.905 2.438a.213.213 0 0 1-.166.342.206.206 0 0 1-.168-.083l-1.91-2.441a20.531 20.531 0 0 0-3.159 2.925l2.506 2.063c.09.07.102.206.03.299a.214.214 0 0 1-.165.076.23.23 0 0 1-.136-.047l-2.523-2.08a20.534 20.534 0 0 0-2.38 3.573l2.947 1.554c.106.053.146.18.09.287a.217.217 0 0 1-.189.112.188.188 0 0 1-.097-.03L6.24 15.333a20.278 20.278 0 0 0-1.633 4.454c.011 0 .024-.01.036-.007l3.342.629c.114.021.19.133.17.247a.218.218 0 0 1-.21.175c-.012 0-.026 0-.04-.004l-3.34-.628c-.015 0-.021-.016-.034-.018a20.621 20.621 0 0 0-.452 3.282h3.49a1.04 1.04 0 0 1 0 2.08H4.084c.058 1.17.23 2.305.475 3.412l3-.561a.213.213 0 0 1 .08.416l-2.997.56a20.36 20.36 0 0 0 1.615 4.321l2.584-1.356a.212.212 0 0 1 .286.091.21.21 0 0 1-.089.286l-2.59 1.36a20.565 20.565 0 0 0 2.333 3.506l2.212-1.823a.219.219 0 0 1 .3.03.218.218 0 0 1-.03.303l-2.197 1.806a20.399 20.399 0 0 0 3.082 2.88l1.673-2.143a.217.217 0 0 1 .3-.035.216.216 0 0 1 .036.3l-1.671 2.138a20.345 20.345 0 0 0 3.372 1.995l1.194-2.262a.219.219 0 0 1 .287-.092.215.215 0 0 1 .09.289l-1.184 2.244c1.274.563 2.621.987 4.019 1.281l.457-2.564a.214.214 0 0 1 .248-.168.208.208 0 0 1 .172.243l-.46 2.573c.91.173 1.835.303 2.783.35v-3.65c0-.572.466-1.042 1.041-1.042.573 0 1.038.47 1.038 1.042v3.65a20.127 20.127 0 0 0 3.322-.457l-.548-3.068a.217.217 0 0 1 .172-.249.218.218 0 0 1 .244.176l.547 3.061a20.328 20.328 0 0 0 4.095-1.47l-1.348-2.551a.213.213 0 0 1 .088-.289.212.212 0 0 1 .287.092l1.35 2.555a20.506 20.506 0 0 0 3.345-2.128l-1.8-2.305a.214.214 0 0 1 .037-.3.215.215 0 0 1 .298.035l1.804 2.306a20.445 20.445 0 0 0 2.988-3.013l-2.232-1.836a.213.213 0 0 1-.03-.298.21.21 0 0 1 .301-.031l2.216 1.826a20.05 20.05 0 0 0 2.213-3.576l-2.476-1.3a.209.209 0 0 1-.089-.285.209.209 0 0 1 .286-.087l2.472 1.296a20.42 20.42 0 0 0 1.41-4.322l-2.68-.501a.214.214 0 0 1-.169-.248.22.22 0 0 1 .25-.171l2.683.504c.166-.897.3-1.812.345-2.749h-3.516a1.04 1.04 0 0 1 0-2.08h3.516a20.61 20.61 0 0 0-.315-2.58zm-6.762 4.658H26.194c-.358.577-.964.982-1.692.982a2.01 2.01 0 0 1-.672-.124l-5.728 10.168-.602-.338 5.727-10.17a2.019 2.019 0 0 1-.745-1.556c0-.084.038-.16.05-.246L14.3 16.018a1.033 1.033 0 0 1 0-1.467 1.036 1.036 0 0 1 1.47 0l8.063 8.064c.211-.078.43-.138.667-.138.728 0 1.336.406 1.691.982h11.654a1.039 1.039 0 1 1 .002 2.077z"/></g></g></svg>