<svg xmlns="http://www.w3.org/2000/svg" width="20" height="24" viewBox="0 0 20 24"><g><g><path fill="#178646" d="M20 20.633s-.115.927-1.109 1.778c-.994.85-2.179 1.661-4.014 1.584-1.835-.077-6.652-4.521-9.214-7.535C3.101 13.446-.148 6.916.005 4.868.158 2.82 2.643.154 4.363 0 5.472.347 7.27 5.564 7.307 6.916c-.115.58-.918.387-1.644.966-.229.182-1.032.927-1.032 1.855 0 .927 2.064 3.709 2.829 4.714.765 1.005 3.173 3.98 4.282 3.825 1.109-.154 1.262-1.177 1.911-1.777.88-.812 5.315 2.782 6.347 4.134z"/></g></g></svg>