<svg xmlns="http://www.w3.org/2000/svg" width="16" height="22" viewBox="0 0 16 22"><g><g><path fill="#168545" d="M12.532 15.324a82.98 82.98 0 0 1-2.862 4.743L8.66 21.6a.55.55 0 0 1-.92 0l-1.01-1.534c-.06-.09-1.458-2.22-2.863-4.743C1.81 11.628.85 9.146.85 7.514.85 3.454 4.147.15 8.2.15c4.053 0 7.35 3.303 7.35 7.364 0 1.632-.959 4.114-3.018 7.81zM8.2 1.254c-3.446 0-6.249 2.808-6.249 6.26 0 1.397.969 3.844 2.878 7.273a82.724 82.724 0 0 0 2.82 4.672l.55.837.552-.837c.058-.088 1.424-2.166 2.82-4.672 1.91-3.429 2.878-5.876 2.878-7.273 0-3.452-2.804-6.26-6.25-6.26zm0 10.297a4.084 4.084 0 0 1 0-8.166 4.084 4.084 0 0 1 0 8.166zm0-7.062a2.98 2.98 0 0 0 0 5.959 2.98 2.98 0 0 0 0-5.96z"/></g></g></svg>