<svg xmlns="http://www.w3.org/2000/svg" width="55" height="56" viewBox="0 0 55 56"><g><g><path fill="#fff" d="M53.66 56H1.34A1.341 1.341 0 0 1 0 54.654V16.092c0-.743.6-1.346 1.338-1.346h10.404V1.344c0-.743.599-1.345 1.338-1.345h28.838c.739 0 1.338.602 1.338 1.345v13.402h10.404c.739 0 1.338.602 1.338 1.345v38.563c0 .743-.6 1.346-1.338 1.346zm-41.917-6.246H6.255a1.342 1.342 0 0 1-1.338-1.346c0-.743.6-1.345 1.338-1.345h5.488v-3.945H6.255a1.341 1.341 0 0 1-1.338-1.345c0-.743.6-1.345 1.338-1.345h5.488v-3.946H6.255a1.342 1.342 0 0 1-1.338-1.346c0-.743.6-1.345 1.338-1.345h5.488v-3.945H6.255a1.341 1.341 0 0 1-1.338-1.345c0-.743.6-1.345 1.338-1.345h5.488V23.21H6.255a1.341 1.341 0 0 1-1.338-1.345c0-.743.6-1.346 1.338-1.346h5.488v-3.083H2.677v35.872h9.066zm13.56 3.555h3.302v-6.715h-3.303zM40.58 2.689H14.42v50.62h8.208v-8.06c0-.743.599-1.346 1.338-1.346h5.977c.74 0 1.338.603 1.338 1.346v8.06h9.301zm11.742 14.748h-9.066v3.083h5.488c.739 0 1.338.603 1.338 1.346 0 .743-.6 1.345-1.338 1.345h-5.488v3.945h5.488c.739 0 1.338.602 1.338 1.345s-.6 1.345-1.338 1.345h-5.488v3.945h5.488c.739 0 1.338.602 1.338 1.345s-.6 1.346-1.338 1.346h-5.488v3.946h5.488c.739 0 1.338.602 1.338 1.345s-.6 1.345-1.338 1.345h-5.488v3.945h5.488c.739 0 1.338.602 1.338 1.345s-.6 1.346-1.338 1.346h-5.488v3.555h9.066zM16.513 39.04c0-.743.599-1.345 1.338-1.345h19.3c.738 0 1.337.602 1.337 1.345s-.599 1.346-1.338 1.346h-19.3a1.342 1.342 0 0 1-1.337-1.346zm20.637-5.29h-19.3a1.342 1.342 0 0 1-1.337-1.346c0-.742.599-1.345 1.338-1.345h19.3c.738 0 1.337.603 1.337 1.345 0 .744-.599 1.346-1.338 1.346zm0-6.636h-19.3a1.341 1.341 0 0 1-1.337-1.345c0-.743.599-1.346 1.338-1.346h19.3c.738 0 1.337.603 1.337 1.346 0 .743-.599 1.345-1.338 1.345zm0-6.636h-19.3a1.342 1.342 0 0 1-1.337-1.345c0-.743.599-1.345 1.338-1.345h19.3c.738 0 1.337.602 1.337 1.345s-.599 1.345-1.338 1.345zm0-6.635h-19.3a1.342 1.342 0 0 1-1.337-1.346c0-.743.599-1.345 1.338-1.345h19.3c.738 0 1.337.602 1.337 1.345s-.599 1.346-1.338 1.346z"/></g></g></svg>