<svg xmlns="http://www.w3.org/2000/svg" width="22" height="19" viewBox="0 0 22 19"><g><g><path fill="#198848" d="M22 14.358v1.359h-4.21c.168.553.267 1.19.267 1.924V19H3.941v-1.358c0-.735.1-1.37.269-1.924H0v-1.359c0-3.681 2.467-4.904 3.867-5.556-.801-.949-1.273-2.242-1.273-3.626C2.594 2.322 4.596 0 7.057 0 8.765 0 10.25 1.118 11 2.755 11.75 1.118 13.235 0 14.943 0c2.46 0 4.463 2.322 4.463 5.176 0 1.38-.472 2.676-1.273 3.626 1.4.653 3.867 1.875 3.867 5.556zM7.81 12.085c-.801-.949-1.273-2.242-1.273-3.626 0-2.38 1.393-4.39 3.283-4.991-.508-1.25-1.552-2.11-2.762-2.11-1.707 0-3.092 1.71-3.092 3.818 0 1.6.798 2.968 1.93 3.536l-.093.488c-.805 1.07-4.431 1.068-4.431 5.158H4.85c.846-1.26 2.102-1.874 2.959-2.273zm8.877 5.556c0-4.022-3.506-4.088-4.389-5.105l-.105-.555c1.116-.576 1.9-1.936 1.9-3.522 0-2.109-1.385-3.818-3.092-3.818-1.708 0-3.093 1.71-3.093 3.818 0 1.6.798 2.968 1.93 3.536l-.093.488c-.805 1.07-4.431 1.068-4.431 5.158zm3.943-3.283c0-4.02-3.506-4.087-4.389-5.105l-.105-.554c1.116-.577 1.9-1.937 1.9-3.523 0-2.108-1.385-3.818-3.092-3.818-1.21 0-2.254.86-2.762 2.11 1.89.602 3.282 2.61 3.282 4.99 0 1.382-.472 2.677-1.273 3.627.857.4 2.113 1.014 2.96 2.273z"/></g></g></svg>