<svg xmlns="http://www.w3.org/2000/svg" width="142" height="21" viewBox="0 0 142 21"><g><g><path fill="#ffde00" d="M21.758 8.53L15.9 13.111l2.104 6.95c.04.13.048.216.048.275a.649.649 0 0 1-.658.658.674.674 0 0 1-.394-.12l-5.99-4.187-6.002 4.188c-.25.174-.526.155-.789 0-.24-.18-.333-.434-.24-.742l2.129-7.022L.249 8.529c-.228-.178-.298-.418-.215-.741.108-.3.311-.443.634-.443h7.305L10.364.442c.104-.3.323-.442.646-.442s.53.142.634.442l2.39 6.903h7.306c.287 0 .55.168.61.443.107.31.044.557-.192.741zm-2.33.143h-5.872c-.31 0-.517-.142-.621-.442L11.01 2.668 9.073 8.23c-.104.3-.31.442-.61.442H2.581l4.699 3.673a.69.69 0 0 1 .227.705l-1.698 5.635 4.83-3.35a.598.598 0 0 1 .73 0l4.83 3.35-1.698-5.635a.69.69 0 0 1 .227-.705zm32.33-.144L45.9 13.112l2.104 6.95c.04.13.048.216.048.275a.649.649 0 0 1-.658.658.674.674 0 0 1-.394-.12l-5.99-4.187-6.002 4.188c-.25.174-.526.155-.789 0-.24-.18-.333-.434-.24-.742l2.129-7.022-5.859-4.583c-.228-.178-.298-.418-.215-.741.108-.3.311-.443.634-.443h7.305L40.364.442c.104-.3.323-.442.646-.442s.53.142.634.442l2.39 6.903h7.306c.287 0 .55.168.61.443.107.31.044.557-.192.741zm-2.331.144h-5.87c-.311 0-.518-.142-.622-.442L41.01 2.668 39.073 8.23c-.104.3-.31.442-.61.442h-5.882l4.699 3.673a.69.69 0 0 1 .227.705l-1.698 5.635 4.83-3.35a.598.598 0 0 1 .73 0l4.83 3.35-1.698-5.635a.69.69 0 0 1 .227-.705zm32.331-.144L75.9 13.112l2.104 6.95c.04.13.048.216.048.275a.649.649 0 0 1-.658.658.674.674 0 0 1-.394-.12l-5.99-4.187-6.002 4.188c-.25.174-.526.155-.789 0-.24-.18-.333-.434-.24-.742l2.129-7.022-5.859-4.583c-.228-.178-.298-.418-.215-.741.108-.3.311-.443.634-.443h7.305L70.364.442c.104-.3.323-.442.646-.442s.53.142.634.442l2.39 6.903h7.306c.287 0 .55.168.61.443.107.31.044.557-.192.741zm-2.331.144h-5.87c-.311 0-.518-.142-.622-.442L71.01 2.668 69.073 8.23c-.104.3-.31.442-.61.442h-5.882l4.699 3.673a.69.69 0 0 1 .227.705l-1.698 5.635 4.83-3.35a.598.598 0 0 1 .73 0l4.83 3.35-1.698-5.635a.69.69 0 0 1 .227-.705zm32.331-.144l-5.858 4.583 2.104 6.95c.04.13.048.216.048.275a.649.649 0 0 1-.658.658.674.674 0 0 1-.394-.12l-5.99-4.187-6.002 4.188c-.25.174-.526.155-.789 0-.24-.18-.333-.434-.24-.742l2.129-7.022-5.859-4.583c-.228-.178-.298-.418-.215-.741.108-.3.311-.443.634-.443h7.305l2.391-6.903c.104-.3.323-.442.646-.442s.53.142.634.442l2.39 6.903h7.306c.287 0 .55.168.61.443.107.31.044.557-.192.741zm-2.331.144h-5.87c-.311 0-.518-.142-.622-.442l-1.925-5.563-1.937 5.563c-.104.3-.31.442-.61.442h-5.882l4.699 3.673a.69.69 0 0 1 .227.705l-1.698 5.635 4.83-3.35a.598.598 0 0 1 .73 0l4.83 3.35-1.698-5.635a.69.69 0 0 1 .227-.705zm32.331-.144l-5.858 4.583 2.104 6.95c.04.13.048.216.048.275a.649.649 0 0 1-.658.658.674.674 0 0 1-.394-.12l-5.99-4.187-6.002 4.188c-.25.174-.526.155-.789 0-.24-.18-.333-.434-.24-.742l2.129-7.022-5.859-4.583c-.228-.178-.298-.418-.215-.741.108-.3.311-.443.634-.443h7.305l2.391-6.903c.104-.3.323-.442.646-.442s.53.142.634.442l2.39 6.903h7.306c.287 0 .55.168.61.443.107.31.044.557-.192.741zm-2.331.144h-5.87c-.311 0-.518-.142-.622-.442l-1.925-5.563-1.937 5.563c-.104.3-.31.442-.61.442h-5.882l4.699 3.673a.69.69 0 0 1 .227.705l-1.698 5.635 4.83-3.35a.598.598 0 0 1 .73 0l4.83 3.35-1.698-5.635a.69.69 0 0 1 .227-.705z"/></g></g></svg>